<?xml version="1.0" standalone="no"?>
<!DOCTYPE svg PUBLIC "-//W3C//DTD SVG 20010904//EN"
 "http://www.w3.org/TR/2001/REC-SVG-20010904/DTD/svg10.dtd">
<svg version="1.0" xmlns="http://www.w3.org/2000/svg"
 width="700.000000pt" height="700.000000pt" viewBox="0 0 700.000000 700.000000"
 preserveAspectRatio="xMidYMid meet">
<metadata>
Created by potrace 1.11, written by Peter Selinger 2001-2013
</metadata>
<g transform="translate(0.000000,700.000000) scale(0.100000,-0.100000)"
fill="#000000" stroke="none">
<path d="M27 6862 l-27 -3 0 -329 0 -328 448 0 c246 -1 470 -1 497 -1 l50 -1
-1 -2695 c-1 -1483 -4 -2698 -7 -2701 -3 -3 -226 -6 -496 -6 l-491 0 0 -328
c0 -254 3 -329 12 -332 23 -6 5190 -1 5282 6 49 3 99 8 110 11 12 2 39 7 60
10 63 9 253 57 291 75 11 5 46 18 77 29 202 72 498 269 641 426 10 11 33 36
51 56 54 58 159 199 209 281 72 117 173 346 191 433 3 11 12 47 20 80 9 33 19
72 21 88 3 15 8 42 11 60 20 120 27 454 10 527 -4 14 -8 41 -11 60 -3 19 -7
46 -10 60 -3 14 -7 36 -10 50 -5 27 -43 156 -70 235 -49 145 -181 374 -302
525 -74 92 -226 239 -310 300 -35 25 -62 47 -62 50 -1 3 25 23 57 45 140 98
371 358 475 533 120 204 219 494 244 718 21 189 1 507 -43 664 -8 30 -17 66
-20 80 -3 14 -16 52 -30 86 -13 33 -24 63 -24 67 0 15 -87 191 -133 267 -102
171 -223 314 -391 464 -131 117 -372 257 -556 324 -97 35 -252 77 -323 87 -27
3 -59 8 -70 11 -12 2 -69 7 -127 10 -105 7 -5191 12 -5243 6z m4318 -666 c118
-7 191 -21 299 -57 439 -148 752 -534 802 -989 35 -311 -49 -610 -241 -860
-168 -219 -406 -368 -695 -436 -68 -16 -159 -18 -1019 -21 -595 -3 -946 -1
-950 6 -3 5 -6 537 -6 1183 l0 1173 40 5 c53 7 1655 3 1770 -4z m105 -3042
c438 -72 794 -368 938 -779 85 -242 87 -524 6 -769 -115 -344 -400 -628 -750
-745 -81 -27 -163 -45 -269 -57 -63 -7 -1825 -7 -1832 0 -7 7 -12 2332 -5
2354 6 19 1792 16 1912 -4z"/>
</g>
</svg>
